<svg width="848" height="291" viewBox="0 0 848 291" fill="none" xmlns="http://www.w3.org/2000/svg">
<path d="M272.912 212.28C266.939 212.28 261.691 211.171 257.168 208.952C252.731 206.648 249.275 203.448 246.8 199.352C244.411 195.171 243.216 190.264 243.216 184.632V143.928C243.216 138.211 244.411 133.304 246.8 129.208C249.275 125.112 252.731 121.955 257.168 119.736C261.691 117.432 266.939 116.28 272.912 116.28C278.971 116.28 284.176 117.432 288.528 119.736C292.965 121.955 296.421 125.112 298.896 129.208C301.371 133.304 302.608 138.211 302.608 143.928H286.48C286.48 139.491 285.285 136.12 282.896 133.816C280.592 131.512 277.264 130.36 272.912 130.36C268.56 130.36 265.189 131.512 262.8 133.816C260.411 136.12 259.216 139.448 259.216 143.8V184.632C259.216 188.984 260.411 192.355 262.8 194.744C265.189 197.133 268.56 198.328 272.912 198.328C277.264 198.328 280.592 197.133 282.896 194.744C285.285 192.355 286.48 188.984 286.48 184.632V175.16H270.608V161.336H302.608V184.632C302.608 190.264 301.371 195.171 298.896 199.352C296.421 203.448 292.965 206.648 288.528 208.952C284.176 211.171 278.971 212.28 272.912 212.28ZM320.478 211V196.408H345.054V155.064H323.678V140.6H360.414V196.408H382.174V211H320.478ZM351.454 128.824C348.211 128.824 345.651 128.013 343.774 126.392C341.897 124.685 340.958 122.424 340.958 119.608C340.958 116.792 341.897 114.573 343.774 112.952C345.651 111.245 348.211 110.392 351.454 110.392C354.697 110.392 357.257 111.245 359.134 112.952C361.011 114.573 361.95 116.792 361.95 119.608C361.95 122.424 361.011 124.685 359.134 126.392C357.257 128.013 354.697 128.824 351.454 128.824ZM433.58 211C426.839 211 421.548 209.123 417.708 205.368C413.953 201.613 412.076 196.451 412.076 189.88V155.064H393.004V140.6H412.076V120.76H428.204V140.6H455.212V155.064H428.204V189.88C428.204 194.317 430.38 196.536 434.732 196.536H453.932V211H433.58ZM482.17 176.184V161.336H523.13V176.184H482.17Z" fill="black"/>
<path d="M571.336 211V132.408H546.888V117.56H611.912V132.408H587.464V211H571.336ZM622.23 211L645.782 117.56H666.39L690.07 211H673.686L668.566 188.344H643.734L638.614 211H622.23ZM646.678 175.288H665.622L659.99 150.2C659.051 146.019 658.241 142.264 657.558 138.936C656.875 135.523 656.406 133.048 656.15 131.512C655.894 133.048 655.425 135.523 654.742 138.936C654.145 142.264 653.334 145.976 652.31 150.072L646.678 175.288ZM733.156 212.28C726.756 212.28 721.209 211.213 716.516 209.08C711.823 206.947 708.196 203.917 705.636 199.992C703.161 195.981 701.881 191.288 701.796 185.912H717.796C717.796 189.752 719.161 192.781 721.892 195C724.708 197.133 728.505 198.2 733.284 198.2C737.892 198.2 741.476 197.133 744.036 195C746.681 192.867 748.004 189.923 748.004 186.168C748.004 183.011 747.065 180.28 745.188 177.976C743.396 175.587 740.793 173.965 737.38 173.112L726.628 170.168C719.289 168.291 713.615 164.92 709.604 160.056C705.679 155.192 703.716 149.304 703.716 142.392C703.716 137.101 704.911 132.493 707.3 128.568C709.689 124.643 713.06 121.613 717.412 119.48C721.849 117.347 727.055 116.28 733.028 116.28C742.073 116.28 749.241 118.627 754.532 123.32C759.823 127.928 762.511 134.157 762.596 142.008H746.596C746.596 138.339 745.401 135.48 743.012 133.432C740.623 131.299 737.252 130.232 732.9 130.232C728.719 130.232 725.476 131.213 723.172 133.176C720.868 135.139 719.716 137.912 719.716 141.496C719.716 144.739 720.569 147.512 722.276 149.816C724.068 152.035 726.628 153.613 729.956 154.552L741.092 157.624C748.516 159.501 754.191 162.872 758.116 167.736C762.041 172.515 764.004 178.445 764.004 185.528C764.004 190.819 762.724 195.512 760.164 199.608C757.604 203.619 754.02 206.733 749.412 208.952C744.804 211.171 739.385 212.28 733.156 212.28ZM780.978 211V117.56H796.978V155.32H808.114L825.65 117.56H843.058L822.194 162.36L844.082 211H826.29L807.858 169.912H796.978V211H780.978Z" fill="#124D36"/>
<circle cx="44" cy="247" r="44" fill="#141514"/>
<circle cx="44" cy="44" r="44" fill="#141514"/>
<rect x="34" y="59" width="21" height="156" fill="#141514"/>
<path d="M43.2016 206.311C43.2016 206.311 48.0005 156.999 103.501 159" stroke="#141514" stroke-width="20"/>
<path d="M184 93.9996C184 93.9996 151.955 159.004 102.499 159.004" stroke="#141514" stroke-width="20"/>
<circle cx="190" cy="76" r="44" fill="#0D3E2A"/>
<circle cx="190" cy="76" r="35" fill="#124D36"/>
<rect x="210.906" y="54" width="12" height="51.4594" transform="rotate(45.1536 210.906 54)" fill="white"/>
<rect x="190.934" y="89.8086" width="12" height="30.3324" transform="rotate(135 190.934 89.8086)" fill="white"/>
</svg>
